<?xml version="1.0" encoding="UTF-8" standalone="no"?>
<!DOCTYPE svg PUBLIC "-//W3C//DTD SVG 1.1//EN" "http://www.w3.org/Graphics/SVG/1.1/DTD/svg11.dtd">
<svg width="100%" height="100%" viewBox="0 0 3000 3000" version="1.1" xmlns="http://www.w3.org/2000/svg" xmlns:xlink="http://www.w3.org/1999/xlink" xml:space="preserve" xmlns:serif="http://www.serif.com/" style="fill-rule:evenodd;clip-rule:evenodd;stroke-linejoin:round;stroke-miterlimit:2;">
    <g transform="matrix(1.09337,0,0,1.09337,-4.17788,274.945)">
        <circle cx="8.608" cy="88.191" r="4.573" style="fill:white;"/>
    </g>
    <g transform="matrix(1.09337,0,0,1.09298,648.042,128.712)">
        <circle cx="8.608" cy="88.191" r="4.573" style="fill:white;"/>
    </g>
    <g transform="matrix(1.09337,0,0,1.09298,738.664,574.339)">
        <circle cx="8.608" cy="88.191" r="4.573" style="fill:white;"/>
    </g>
    <g transform="matrix(1.67545,0,0,1.67485,268.522,748.825)">
        <g transform="matrix(0.652587,0,0,0.652587,1.40181,29.05)">
            <circle cx="8.608" cy="88.191" r="4.573" style="fill:white;"/>
        </g>
        <g transform="matrix(0.652587,0,0,0.652587,38.4533,-116.765)">
            <circle cx="8.608" cy="88.191" r="4.573" style="fill:white;"/>
        </g>
    </g>
    <g transform="matrix(1.67545,0,0,1.67485,145.425,1208.61)">
        <g transform="matrix(0.652587,0,0,0.652587,1.40181,29.05)">
            <circle cx="8.608" cy="88.191" r="4.573" style="fill:white;"/>
        </g>
        <g transform="matrix(0.652587,0,0,0.652587,372.51,95.343)">
            <circle cx="8.608" cy="88.191" r="4.573" style="fill:white;"/>
        </g>
    </g>
    <g transform="matrix(1.09337,0,0,1.09298,945.338,1129.31)">
        <circle cx="8.608" cy="88.191" r="4.573" style="fill:white;"/>
    </g>
    <g transform="matrix(1.67545,0,0,1.67485,2078.08,1088.34)">
        <g transform="matrix(0.652587,0,0,0.652587,1.40181,29.05)">
            <circle cx="8.608" cy="88.191" r="4.573" style="fill:white;"/>
        </g>
        <g transform="matrix(0.652587,0,0,0.652587,177.43,236.216)">
            <circle cx="8.608" cy="88.191" r="4.573" style="fill:white;"/>
        </g>
        <g transform="matrix(0.652587,0,0,0.652587,333.915,-44.2648)">
            <circle cx="8.608" cy="88.191" r="4.573" style="fill:white;"/>
        </g>
        <g transform="matrix(0.652587,0,0,0.652587,333.915,803.042)">
            <circle cx="8.608" cy="88.191" r="4.573" style="fill:white;"/>
        </g>
        <g transform="matrix(0.652587,0,0,0.652587,-82.3392,887.98)">
            <circle cx="8.608" cy="88.191" r="4.573" style="fill:white;"/>
        </g>
        <g transform="matrix(0.652587,0,0,0.652587,222.085,995.706)">
            <circle cx="8.608" cy="88.191" r="4.573" style="fill:white;"/>
        </g>
    </g>
    <g transform="matrix(1.67545,0,0,1.67485,2978.15,1332.37)">
        <g transform="matrix(0.652587,0,0,0.652587,1.40181,29.05)">
            <circle cx="8.608" cy="88.191" r="4.573" style="fill:white;"/>
        </g>
        <g transform="matrix(0.652587,0,0,0.652587,-120.782,393.661)">
            <circle cx="8.608" cy="88.191" r="4.573" style="fill:white;"/>
        </g>
        <g transform="matrix(0.652587,0,0,0.652587,-550.147,271.346)">
            <circle cx="8.608" cy="88.191" r="4.573" style="fill:white;"/>
        </g>
        <g transform="matrix(0.652587,0,0,0.652587,-1769.23,323.225)">
            <circle cx="8.608" cy="88.191" r="4.573" style="fill:white;"/>
        </g>
        <g transform="matrix(0.652587,0,0,0.652587,-425.207,515.889)">
            <circle cx="8.608" cy="88.191" r="4.573" style="fill:white;"/>
        </g>
        <g transform="matrix(0.652587,0,0,0.652587,-283.832,300.923)">
            <circle cx="8.608" cy="88.191" r="4.573" style="fill:white;"/>
        </g>
        <g transform="matrix(0.652587,0,0,0.652587,-1046.48,708.553)">
            <circle cx="8.608" cy="88.191" r="4.573" style="fill:white;"/>
        </g>
    </g>
    <g transform="matrix(1.67545,0,0,1.67485,2465.51,545.721)">
        <g transform="matrix(0.652587,0,0,0.652587,-50.1716,77.9265)">
            <circle cx="8.608" cy="88.191" r="4.573" style="fill:white;"/>
        </g>
        <g transform="matrix(0.652587,0,0,0.652587,228.053,23.6193)">
            <circle cx="8.608" cy="88.191" r="4.573" style="fill:white;"/>
        </g>
    </g>
    <g transform="matrix(1.67545,0,0,1.67485,2181.22,379.644)">
        <g transform="matrix(0.652587,0,0,0.652587,1.40181,29.05)">
            <circle cx="8.608" cy="88.191" r="4.573" style="fill:white;"/>
        </g>
        <g transform="matrix(0.652587,0,0,0.652587,89.1955,-83.5951)">
            <circle cx="8.608" cy="88.191" r="4.573" style="fill:white;"/>
        </g>
    </g>
    <g transform="matrix(1.09337,0,0,1.09298,2766.66,234.32)">
        <circle cx="8.608" cy="88.191" r="4.573" style="fill:white;"/>
    </g>
    <g transform="matrix(1.67545,0,0,1.67485,695.378,804.973)">
        <g transform="matrix(0.652587,0,0,0.652587,-36.7693,90.1457)">
            <circle cx="8.608" cy="88.191" r="4.573" style="fill:white;"/>
        </g>
        <g transform="matrix(0.652587,0,0,0.652587,7.96246,709.985)">
            <circle cx="8.608" cy="88.191" r="4.573" style="fill:white;"/>
        </g>
        <g transform="matrix(0.652587,0,0,0.652587,43.168,1076.67)">
            <circle cx="8.608" cy="88.191" r="4.573" style="fill:white;"/>
        </g>
        <g transform="matrix(0.652587,0,0,0.652587,-218.092,1034.58)">
            <circle cx="8.608" cy="88.191" r="4.573" style="fill:white;"/>
        </g>
        <g transform="matrix(0.652587,0,0,0.652587,217.125,767.991)">
            <circle cx="8.608" cy="88.191" r="4.573" style="fill:white;"/>
        </g>
        <g transform="matrix(0.652587,0,0,0.652587,-163.924,834.284)">
            <circle cx="8.608" cy="88.191" r="4.573" style="fill:white;"/>
        </g>
        <g transform="matrix(0.652587,0,0,0.652587,519.479,1167.82)">
            <circle cx="8.608" cy="88.191" r="4.573" style="fill:white;"/>
        </g>
        <g transform="matrix(0.652587,0,0,0.652587,1351.99,1130.53)">
            <circle cx="8.608" cy="88.191" r="4.573" style="fill:white;"/>
        </g>
        <g transform="matrix(0.652587,0,0,0.652587,-410.363,1242.4)">
            <circle cx="8.608" cy="88.191" r="4.573" style="fill:white;"/>
        </g>
        <g transform="matrix(0.652587,0,0,0.652587,-164.338,458.072)">
            <circle cx="8.608" cy="88.191" r="4.573" style="fill:white;"/>
        </g>
        <g transform="matrix(0.652587,0,0,0.652587,117.307,520.221)">
            <circle cx="8.608" cy="88.191" r="4.573" style="fill:white;"/>
        </g>
    </g>
    <g transform="matrix(1.09337,0,0,1.09298,1029.2,339.996)">
        <circle cx="8.608" cy="88.191" r="4.573" style="fill:white;"/>
    </g>
</svg>
