<?xml version="1.0" encoding="UTF-8" standalone="no"?>
<!DOCTYPE svg PUBLIC "-//W3C//DTD SVG 1.1//EN" "http://www.w3.org/Graphics/SVG/1.1/DTD/svg11.dtd">
<svg width="100%" height="100%" viewBox="0 0 50 50" version="1.1" xmlns="http://www.w3.org/2000/svg" xmlns:xlink="http://www.w3.org/1999/xlink" xml:space="preserve" xmlns:serif="http://www.serif.com/" style="fill-rule:evenodd;clip-rule:evenodd;stroke-linejoin:round;stroke-miterlimit:2;">
    <g transform="matrix(0.0976562,0,0,0.0976562,-2.05078,-1.11022e-16)">
        <path d="M346.332,512L79.668,512C47.305,512 21,485.695 21,453.332L21,165.332C21,132.969 47.305,106.668 79.668,106.668L133.132,106.668C141.964,106.668 149.132,116.608 149.132,125.44C149.132,134.272 141.964,143.36 133.132,143.36L79.668,143.36C68.898,143.36 58.034,154.562 58.034,165.332L58.034,453.332C58.034,462.465 70.535,475.136 79.668,475.136L346.332,475.136C354.892,475.136 369.33,461.892 369.33,453.332L369.33,442.668C369.33,433.836 377.394,426.668 386.226,426.668C395.058,426.668 405,433.836 405,442.668L405,453.332C405,485.695 378.695,512 346.332,512Z" style="fill:white;fill-rule:nonzero;"/>
    </g>
    <g transform="matrix(0.0976562,0,0,0.0976562,2.11601,-2.77556e-15)">
        <path d="M431.668,384L207.668,384C175.305,384 149,357.695 149,325.332L149,58.668C149,26.305 175.305,0 207.668,0L431.668,0C464.031,0 490.332,26.305 490.332,58.668L490.332,325.332C490.332,357.695 464.031,384 431.668,384ZM207.668,36.864C198.487,36.864 186.034,49.487 186.034,58.668L186.034,325.332C186.034,336.757 196.243,347.136 207.668,347.136L431.668,347.136C441.128,347.136 453.298,334.792 453.298,325.332L453.298,58.668C453.298,50.049 440.287,36.864 431.668,36.864L207.668,36.864Z" style="fill:white;fill-rule:nonzero;"/>
    </g>
</svg>
