<?xml version="1.0" encoding="UTF-8" standalone="no"?>
<!DOCTYPE svg PUBLIC "-//W3C//DTD SVG 1.1//EN" "http://www.w3.org/Graphics/SVG/1.1/DTD/svg11.dtd">
<svg width="100%" height="100%" viewBox="0 0 448 448" version="1.1" xmlns="http://www.w3.org/2000/svg" xmlns:xlink="http://www.w3.org/1999/xlink" xml:space="preserve" xmlns:serif="http://www.serif.com/" style="fill-rule:evenodd;clip-rule:evenodd;stroke-linejoin:round;stroke-miterlimit:2;">
    <path d="M408,184L272,184C267.582,184 264,180.418 264,176L264,40C264,17.91 246.09,0 224,0C201.91,0 184,17.91 184,40L184,176C184,180.418 180.418,184 176,184L40,184C17.91,184 0,201.91 0,224C0,246.09 17.91,264 40,264L176,264C180.418,264 184,267.582 184,272L184,408C184,430.09 201.91,448 224,448C246.09,448 264,430.09 264,408L264,272C264,267.582 267.582,264 272,264L408,264C430.09,264 448,246.09 448,224C448,201.91 430.09,184 408,184Z" style="fill:white;fill-rule:nonzero;"/>
</svg>
