<?xml version="1.0" encoding="UTF-8" standalone="no"?>
<!DOCTYPE svg PUBLIC "-//W3C//DTD SVG 1.1//EN" "http://www.w3.org/Graphics/SVG/1.1/DTD/svg11.dtd">
<svg width="100%" height="100%" viewBox="0 0 315 216" version="1.1" xmlns="http://www.w3.org/2000/svg" xmlns:xlink="http://www.w3.org/1999/xlink" xml:space="preserve" xmlns:serif="http://www.serif.com/" style="fill-rule:evenodd;clip-rule:evenodd;stroke-linejoin:round;stroke-miterlimit:2;">
    <g transform="matrix(1,0,0,1,-2.499,-51.7055)">
        <path d="M41.603,78.809C80.707,50.351 116.952,51.716 116.952,51.716L119.875,54.596C72.024,66.009 50.328,87.385 50.328,87.385C52.547,86.916 149.165,31.172 266.243,88.793C266.243,88.793 244.504,68.804 199.597,56.004L203.565,52.1C209.773,52.121 242.627,53.273 277.784,78.98C277.784,78.98 317.123,146.18 317.123,228.74C315.821,227.161 292.717,264.281 233.261,265.561C233.261,265.561 223.192,254.169 216.024,244.228C250.797,234.244 263.811,214.276 263.811,214.276C196.12,256.9 136.792,250.244 65.816,221.444C65.155,221.444 64.856,221.145 64.515,220.804L64.515,220.676C64.173,220.356 63.875,220.036 63.213,220.036L61.933,220.036C57.581,217.177 54.68,215.769 54.68,215.769C54.68,215.769 67.672,235.737 101.059,245.721C92.291,255.727 83.608,267.097 83.608,267.097C24.173,265.689 2.499,228.569 2.499,228.569C2.499,145.881 41.603,78.809 41.603,78.809ZM208.237,202.948C223.405,202.948 235.757,190.148 235.757,174.361C235.757,158.681 223.469,145.881 208.237,145.881L208.237,145.945C193.133,145.945 180.76,158.703 180.717,174.489C180.717,190.148 193.069,202.948 208.237,202.948ZM109.72,202.948C124.888,202.948 137.24,190.148 137.24,174.361C137.24,158.681 124.973,145.881 109.805,145.881L109.72,145.945C94.552,145.945 82.2,158.703 82.2,174.489C82.2,190.148 94.552,202.948 109.72,202.948ZM204.397,51.737L203.693,51.993L203.949,51.737L204.397,51.737Z" style="fill:white;"/>
    </g>
</svg>
