<?xml version="1.0" encoding="UTF-8" standalone="no"?>
<!DOCTYPE svg PUBLIC "-//W3C//DTD SVG 1.1//EN" "http://www.w3.org/Graphics/SVG/1.1/DTD/svg11.dtd">
<svg width="100%" height="100%" viewBox="0 0 512 512" version="1.1" xmlns="http://www.w3.org/2000/svg" xmlns:xlink="http://www.w3.org/1999/xlink" xml:space="preserve" xmlns:serif="http://www.serif.com/" style="fill-rule:evenodd;clip-rule:evenodd;stroke-linejoin:round;stroke-miterlimit:2;">
    <path d="M496.659,312.107L449.598,275.307C450.195,269.632 450.707,262.998 450.707,255.979C450.707,248.96 450.216,242.326 449.598,236.651L496.702,199.83C505.449,192.918 507.838,180.651 502.27,170.433L453.331,85.76C448.104,76.203 436.648,71.296 425.022,75.584L369.491,97.877C358.846,90.197 347.688,83.712 336.147,78.528L327.699,19.627C326.312,8.448 316.584,0 305.086,0L206.953,0C195.454,0 185.748,8.448 184.382,19.456L175.913,78.571C164.734,83.606 153.748,90.006 142.633,97.92L86.953,75.563C76.52,71.531 64.04,76.053 58.856,85.568L9.854,170.347C4.073,180.118 6.462,192.811 15.401,199.894L62.462,236.694C61.715,243.883 61.353,250.134 61.353,256.001C61.353,261.868 61.716,268.118 62.462,275.329L15.358,312.15C6.611,319.083 4.243,331.35 9.811,341.547L58.75,426.219C63.977,435.755 75.326,440.704 87.059,436.395L142.59,414.102C153.214,421.761 164.371,428.246 175.913,433.451L184.361,492.331C185.747,503.552 195.454,512 206.974,512L305.107,512C316.606,512 326.334,503.552 327.699,492.544L336.168,433.451C347.347,428.395 358.312,422.016 369.448,414.08L425.128,436.437C427.816,437.482 430.611,438.016 433.491,438.016C441.768,438.016 449.384,433.493 453.224,426.453L502.376,341.333C507.838,331.349 505.448,319.083 496.659,312.107ZM256.019,341.333C208.958,341.333 170.686,303.061 170.686,256C170.686,208.939 208.958,170.667 256.019,170.667C303.08,170.667 341.352,208.939 341.352,256C341.352,303.061 303.08,341.333 256.019,341.333Z" style="fill:white;fill-rule:nonzero;"/>
</svg>
