<?xml version="1.0" encoding="UTF-8" standalone="no"?>
<!DOCTYPE svg PUBLIC "-//W3C//DTD SVG 1.1//EN" "http://www.w3.org/Graphics/SVG/1.1/DTD/svg11.dtd">
<svg width="100%" height="100%" viewBox="0 0 201 365" version="1.1" xmlns="http://www.w3.org/2000/svg" xmlns:xlink="http://www.w3.org/1999/xlink" xml:space="preserve" xmlns:serif="http://www.serif.com/" style="fill-rule:evenodd;clip-rule:evenodd;stroke-linejoin:round;stroke-miterlimit:2;">
    <g transform="matrix(-4.16667,0,0,4.16667,1627.3,-925.738)">
        <path d="M346.134,309.427L344.068,308.222C343.205,307.72 342.67,306.654 342.666,305.14L342.69,244.338C342.682,241.286 344.828,237.574 347.482,236.042L370.367,222.835C371.142,222.388 371.874,222.177 372.524,222.177C372.994,222.177 373.42,222.288 373.787,222.501L375.83,223.693C375.468,223.488 375.05,223.382 374.59,223.382C373.94,223.382 373.208,223.593 372.433,224.04L349.548,237.248C346.895,238.779 344.748,242.491 344.756,245.543L344.732,306.345C344.736,307.859 345.271,308.925 346.134,309.426L346.134,309.427Z" style="fill:url(#_Linear1);"/>
        <path d="M371.977,224.538L349.933,237.31C348.153,238.364 346.763,239.974 345.993,241.894C345.558,242.978 345.286,243.925 345.286,244.174L345.286,306.978C345.286,308.128 345.863,309.896 348.109,309.435L371.63,296.041C373.448,295.036 375.323,293.118 376.126,291.201C376.482,290.353 376.859,289.251 376.859,288.653L376.958,226.166C376.958,223.689 374.122,223.3 371.977,224.538Z" style="fill:rgb(35,28,28);fill-rule:nonzero;"/>
        <path d="M345.286,297.311L345.286,306.978C345.286,308.128 345.863,309.896 348.109,309.435L371.63,296.041C373.448,295.035 375.323,293.118 376.126,291.201C376.482,290.353 376.859,289.251 376.859,288.653L376.874,279.073L345.286,297.311Z" style="fill:rgb(100,139,232);fill-rule:nonzero;"/>
        <path d="M376.958,226.166C376.958,223.689 374.122,223.3 371.977,224.538L349.933,237.31C348.153,238.364 346.763,239.974 345.993,241.894C345.558,242.978 345.286,243.925 345.286,244.174L345.286,254.303L376.943,236.026L376.958,226.166Z" style="fill:rgb(211,41,41);fill-rule:nonzero;"/>
        <path d="M376.608,287.689C376.607,290.766 374.966,293.609 372.301,295.147L368.564,297.304L354.451,305.447L348.397,308.942C347.146,309.663 345.583,308.761 345.583,307.317L345.592,245.571C345.593,242.452 347.257,239.57 349.958,238.012L354.398,235.45C354.502,235.389 354.624,235.365 354.744,235.382L357.176,235.724C357.296,235.741 357.418,235.717 357.523,235.657L364.693,231.52L364.828,231.41L368.366,227.421L368.501,227.311L373.388,224.49C374.823,223.662 376.617,224.698 376.616,226.355L376.608,287.689ZM372.433,224.04L349.548,237.248C346.895,238.779 344.748,242.491 344.756,245.543L344.732,306.345C344.74,309.393 346.9,310.624 349.553,309.093L372.439,295.886C375.092,294.355 377.238,290.638 377.23,287.59L377.254,226.789C377.246,223.737 375.086,222.509 372.433,224.04Z" style="fill:rgb(223,220,224);fill-rule:nonzero;"/>
        <path d="M364.274,230.967L359.506,233.719C359.243,233.871 359.03,233.781 359.03,233.518C359.03,233.256 359.243,232.92 359.506,232.768L364.274,230.016C364.537,229.865 364.749,229.955 364.749,230.217C364.749,230.48 364.536,230.816 364.274,230.967Z" style="fill:rgb(25,20,20);fill-rule:nonzero;"/>
        <path d="M343.827,258.19C343.921,258.298 344,258.423 344.058,258.553C344.124,258.703 344.162,258.858 344.161,259.002L344.161,264.056C344.16,264.245 344.094,264.378 343.987,264.44L343.555,264.691C343.662,264.629 343.728,264.496 343.729,264.307L343.729,259.253C343.73,259.109 343.692,258.953 343.626,258.804C343.568,258.673 343.489,258.548 343.395,258.441C343.317,258.352 343.228,258.276 343.134,258.221L342.97,258.126C342.805,258.031 342.654,258.022 342.545,258.087L342.977,257.835C343.086,257.772 343.237,257.781 343.402,257.876L343.566,257.97C343.66,258.026 343.749,258.101 343.827,258.19Z" style="fill:rgb(249,247,250);fill-rule:nonzero;"/>
        <path d="M343.729,259.253L343.729,264.307C343.728,264.688 343.461,264.84 343.13,264.648L342.965,264.553C342.637,264.364 342.369,263.903 342.37,263.522L342.37,258.468C342.372,258.091 342.641,257.937 342.97,258.126L343.134,258.221C343.466,258.414 343.73,258.875 343.729,259.253Z" style="fill:rgb(191,186,196);fill-rule:nonzero;"/>
        <path d="M343.827,250.48C343.921,250.586 344,250.711 344.058,250.843C344.124,250.991 344.162,251.148 344.161,251.291L344.161,256.345C344.16,256.535 344.094,256.667 343.987,256.73L343.555,256.98C343.662,256.919 343.728,256.785 343.729,256.596L343.729,251.542C343.73,251.399 343.692,251.242 343.626,251.093C343.568,250.962 343.489,250.837 343.395,250.731C343.317,250.641 343.228,250.565 343.134,250.511L342.97,250.416C342.805,250.32 342.654,250.312 342.545,250.375L342.977,250.124C343.086,250.061 343.237,250.07 343.402,250.165L343.566,250.26C343.66,250.314 343.749,250.39 343.827,250.48Z" style="fill:rgb(249,247,250);fill-rule:nonzero;"/>
        <path d="M343.729,251.542L343.729,256.596C343.728,256.979 343.461,257.13 343.13,256.937L342.965,256.843C342.637,256.653 342.369,256.193 342.37,255.811L342.371,250.757C342.372,250.38 342.641,250.226 342.97,250.416L343.134,250.511C343.466,250.702 343.73,251.165 343.729,251.542Z" style="fill:rgb(191,186,196);fill-rule:nonzero;"/>
        <path d="M357.607,233.665C357.285,233.852 357.024,234.303 357.025,234.674C357.026,235.044 357.288,235.194 357.611,235.008C357.933,234.822 358.194,234.37 358.193,234C358.192,233.629 357.93,233.479 357.607,233.665Z" style="fill:rgb(25,20,20);fill-rule:nonzero;"/>
        <path d="M357.418,234.884C357.272,234.884 357.174,234.767 357.18,234.568C357.186,234.293 357.388,233.964 357.629,233.834C357.696,233.798 357.759,233.781 357.814,233.781C357.96,233.781 358.058,233.897 358.053,234.097C358.046,234.372 357.845,234.701 357.603,234.831C357.537,234.867 357.474,234.884 357.418,234.884ZM357.732,234.052C357.701,234.052 357.667,234.061 357.631,234.081C357.5,234.151 357.391,234.33 357.387,234.48C357.384,234.588 357.437,234.651 357.516,234.651C357.547,234.651 357.581,234.642 357.617,234.622C357.748,234.552 357.857,234.373 357.861,234.223C357.864,234.115 357.811,234.052 357.732,234.052Z" style="fill:rgb(44,40,40);fill-rule:nonzero;"/>
        <path d="M357.516,234.651C357.437,234.651 357.384,234.588 357.387,234.48C357.391,234.33 357.5,234.151 357.631,234.081C357.667,234.061 357.701,234.052 357.732,234.052C357.811,234.052 357.864,234.115 357.861,234.223C357.857,234.373 357.748,234.552 357.617,234.622C357.581,234.642 357.547,234.651 357.516,234.651ZM357.627,234.251L357.536,234.399L357.621,234.452L357.712,234.304L357.627,234.251Z" style="fill:rgb(61,58,58);fill-rule:nonzero;"/>
        <path d="M357.621,234.452L357.536,234.399L357.627,234.251L357.712,234.304L357.621,234.452Z" style="fill:rgb(92,91,91);fill-rule:nonzero;"/>
        <path d="M375.295,223.451C375.295,223.451 375.199,223.416 375.004,223.377C374.811,223.338 374.513,223.302 374.129,223.351C373.747,223.399 373.283,223.522 372.777,223.758C372.272,223.997 371.743,224.337 371.125,224.681C368.676,226.09 365.176,228.103 360.976,230.518C358.877,231.726 356.602,233.034 354.196,234.418C352.993,235.11 351.757,235.82 350.494,236.547C349.871,236.915 349.202,237.249 348.607,237.726C348.012,238.193 347.477,238.741 346.999,239.34C346.043,240.538 345.305,241.945 344.896,243.473C344.454,245.028 344.65,246.631 344.6,248.21C344.594,251.389 344.588,254.619 344.582,257.85C344.595,270.768 344.609,283.686 344.619,293.376C344.625,298.22 344.63,302.257 344.633,305.083C344.644,305.789 344.607,306.419 344.678,306.978C344.742,307.533 344.895,307.993 345.078,308.333C345.254,308.678 345.46,308.897 345.602,309.032C345.746,309.169 345.83,309.224 345.83,309.224C345.839,309.214 345.759,309.148 345.634,309.001C345.507,308.855 345.339,308.619 345.186,308.28C345.035,307.941 344.91,307.495 344.856,306.958C344.806,306.424 344.84,305.789 344.832,305.083C344.837,302.257 344.846,298.22 344.856,293.376C344.873,283.687 344.897,270.768 344.92,257.85C344.917,254.619 344.913,251.389 344.91,248.21C344.953,246.625 344.76,245.02 345.181,243.548C345.573,242.065 346.291,240.685 347.219,239.515C347.684,238.93 348.203,238.396 348.776,237.943C349.342,237.485 349.999,237.153 350.628,236.779C351.889,236.049 353.123,235.335 354.323,234.639C356.725,233.248 358.996,231.933 361.092,230.719C365.285,228.291 368.778,226.268 371.224,224.852C371.836,224.501 372.379,224.174 372.854,223.917C373.336,223.671 373.78,223.537 374.147,223.477C374.886,223.366 375.284,223.492 375.284,223.492L375.295,223.451Z" style="fill:url(#_Linear2);"/>
        <path d="M345.589,264.052L355.931,257.713C356.13,257.591 356.193,257.329 356.071,257.13C355.947,256.929 355.687,256.868 355.486,256.989L345.589,263.057L345.589,264.052Z" style="fill:rgb(214,214,214);fill-rule:nonzero;"/>
        <path d="M388.474,244.246L387.345,244.323L359.488,262.037L359.486,263.97L388.474,247.234L388.474,244.246Z" style="fill:rgb(211,41,41);fill-rule:nonzero;"/>
        <path d="M375.949,230.313L345.583,247.845L359.488,262.046L389.854,244.514L375.949,230.313Z" style="fill:rgb(248,79,77);fill-rule:nonzero;"/>
        <path d="M388.085,244.28L388.085,247.459L390.552,246.035L390.552,244.103L388.085,244.28Z" style="fill:rgb(229,229,229);fill-rule:nonzero;"/>
        <path d="M382.902,247.273L382.902,250.451L385.368,249.027L385.368,247.095L382.902,247.273Z" style="fill:rgb(229,229,229);fill-rule:nonzero;"/>
        <path d="M377.719,250.265L377.719,253.444L380.185,252.02L380.185,250.088L377.719,250.265Z" style="fill:rgb(229,229,229);fill-rule:nonzero;"/>
        <path d="M372.543,253.253L372.543,256.432L375.009,255.008L375.009,253.076L372.543,253.253Z" style="fill:rgb(229,229,229);fill-rule:nonzero;"/>
        <path d="M367.359,256.246L367.359,259.425L369.826,258.001L369.826,256.069L367.359,256.246Z" style="fill:rgb(229,229,229);fill-rule:nonzero;"/>
        <path d="M362.183,259.234L362.183,262.414L364.65,260.989L364.65,259.057L362.183,259.234Z" style="fill:rgb(229,229,229);fill-rule:nonzero;"/>
        <path d="M359.488,263.971L345.583,255.943L345.583,247.845L354.571,257.024L359.488,262.046L359.488,263.971Z" style="fill:rgb(183,28,28);fill-rule:nonzero;"/>
        <path d="M350.744,244.866L348.274,246.292L362.179,260.492L364.648,259.066L350.744,244.866ZM355.924,241.875L353.454,243.301L367.359,257.501L369.829,256.075L355.924,241.875ZM361.105,238.884L358.635,240.31L372.54,254.51L375.01,253.084L361.105,238.884ZM366.285,235.893L363.816,237.318L377.721,251.519L380.19,250.093L366.285,235.893ZM371.466,232.902L368.996,234.327L382.901,248.528L385.371,247.102L371.466,232.902ZM390.552,244.111L388.082,245.537L374.177,231.336L376.647,229.91L390.552,244.111Z" style="fill:rgb(245,245,245);fill-rule:nonzero;"/>
        <path d="M351.767,288.195C350.378,288.195 349.425,287.084 349.425,285.163L349.425,279.13C349.425,276.431 351.307,273.171 353.637,271.835L368.533,263.291C369.207,262.904 369.844,262.721 370.409,262.721C371.799,262.721 372.755,263.83 372.755,265.749L372.755,271.781C372.755,274.481 370.863,277.746 368.533,279.082L353.637,287.627C352.965,288.012 352.33,288.195 351.767,288.195Z" style="fill-rule:nonzero;"/>
        <path d="M378.037,266.77L357.2,291.686L356.323,291.167C355.552,290.725 355.076,289.771 355.076,288.413L355.076,282.38C355.076,279.681 356.958,276.421 359.288,275.085L374.184,266.541C375.344,265.875 376.396,265.813 377.159,266.251L378.037,266.77Z" style="fill:rgb(245,245,245);fill-rule:nonzero;"/>
        <path d="M375.062,267.06L360.165,275.604C357.835,276.941 355.953,280.2 355.953,282.899L355.953,288.932C355.953,291.631 357.835,292.732 360.165,291.396L375.062,282.852C377.392,281.515 379.284,278.25 379.284,275.551L379.284,269.518C379.284,266.818 377.392,265.723 375.062,267.06Z" style="fill:rgb(113,157,255);fill-rule:nonzero;"/>
        <path d="M365.516,284.006C364.853,284.388 364.315,285.236 364.315,285.899C364.315,286.562 364.853,286.789 365.516,286.407C366.179,286.024 366.716,285.176 366.716,284.513C366.716,283.85 366.179,283.623 365.516,284.006Z" style="fill:rgb(245,245,245);fill-rule:nonzero;"/>
        <path d="M371.809,280.372C371.146,280.755 370.609,281.603 370.609,282.266C370.609,282.929 371.146,283.156 371.809,282.773C372.472,282.39 373.01,281.542 373.01,280.879C373.01,280.216 372.472,279.989 371.809,280.372Z" style="fill:rgb(245,245,245);fill-rule:nonzero;"/>
        <path d="M372.922,273.742L370.27,275.273L370.27,274.08L373.21,272.382L372.922,273.742ZM372.547,275.506L370.27,276.821L370.27,275.633L372.835,274.152L372.547,275.506ZM372.177,277.255L370.27,278.355L370.27,277.181L372.46,275.916L372.177,277.255ZM369.91,275.481L367.569,276.833L367.569,275.639L369.91,274.288L369.91,275.481ZM369.91,277.029L367.569,278.38L367.569,277.193L369.91,275.841L369.91,277.029ZM369.91,278.563L367.569,279.915L367.569,278.741L369.91,277.389L369.91,278.563ZM367.208,277.041L364.073,278.851L363.649,277.902L367.208,275.847L367.208,277.041ZM367.208,278.588L364.624,280.08L364.202,279.137L367.208,277.401L367.208,278.588ZM367.208,280.123L365.17,281.3L364.752,280.367L367.208,278.948L367.208,280.123ZM373.58,271.877L373.439,271.89L363.521,277.616L363.179,276.852C363.128,276.738 362.992,276.721 362.84,276.809L361.46,277.605C361.261,277.72 361.1,277.975 361.1,278.173C361.1,278.372 361.261,278.44 361.46,278.326L362.586,277.676L365.176,283.464C365.227,283.578 365.363,283.595 365.516,283.507L372.264,279.611C372.463,279.496 372.624,279.242 372.624,279.043C372.624,278.844 372.463,278.776 372.264,278.891L365.77,282.64L365.298,281.586L372.318,277.533C372.401,277.485 372.474,277.386 372.493,277.294L373.614,272.011L373.58,271.877Z" style="fill:rgb(245,245,245);fill-rule:nonzero;"/>
        <path d="M373.279,270.336C372.021,271.063 371,272.673 371,273.931C371,275.19 372.021,275.621 373.279,274.895C374.538,274.168 375.559,272.558 375.559,271.3C375.559,270.041 374.538,269.61 373.279,270.336Z" style="fill:rgb(245,245,245);fill-rule:nonzero;"/>
        <path d="M372.426,272.406L372.426,272L372.5,271.828L372.951,271.286C373.027,271.195 373.091,271.135 373.144,271.105L373.54,270.876L373.645,270.92L373.645,273.897L373.622,273.992L373.545,274.058L373.119,274.304L373.015,274.26L373.015,271.848L372.53,272.405L372.426,272.406Z" style="fill:rgb(113,157,255);fill-rule:nonzero;"/>
    </g>
    <defs>
        <linearGradient id="_Linear1" x1="0" y1="0" x2="1" y2="0" gradientUnits="userSpaceOnUse" gradientTransform="matrix(4.10803,-7.11532,7.11532,4.10803,358.213,251.83)"><stop offset="0" style="stop-color:rgb(191,186,195);stop-opacity:1"/><stop offset="1" style="stop-color:rgb(223,219,223);stop-opacity:1"/></linearGradient>
        <linearGradient id="_Linear2" x1="0" y1="0" x2="1" y2="0" gradientUnits="userSpaceOnUse" gradientTransform="matrix(4.10377,-7.10794,7.10794,4.10377,359.012,252.331)"><stop offset="0" style="stop-color:rgb(228,223,235);stop-opacity:1"/><stop offset="1" style="stop-color:rgb(244,240,246);stop-opacity:1"/></linearGradient>
    </defs>
</svg>
