<?xml version="1.0" encoding="UTF-8" standalone="no"?>
<!DOCTYPE svg PUBLIC "-//W3C//DTD SVG 1.1//EN" "http://www.w3.org/Graphics/SVG/1.1/DTD/svg11.dtd">
<svg width="100%" height="100%" viewBox="0 0 320 320" version="1.1" xmlns="http://www.w3.org/2000/svg" xmlns:xlink="http://www.w3.org/1999/xlink" xml:space="preserve" xmlns:serif="http://www.serif.com/" style="fill-rule:evenodd;clip-rule:evenodd;stroke-linejoin:round;stroke-miterlimit:2;">
    <g transform="matrix(1,0,0,1,-97,-69.5)">
        <path d="M417,69.5L417,389.5L97,389.5L417,389.5L417,69.5ZM97,389.5C97,389.5 97,69.5 97,69.5L97,389.5ZM138.603,148.309C177.707,119.851 213.952,121.216 213.952,121.216L216.875,124.096C169.024,135.509 147.328,156.885 147.328,156.885C149.547,156.416 246.165,100.672 363.243,158.293C363.243,158.293 341.504,138.304 296.597,125.504L300.565,121.6C306.773,121.621 339.627,122.773 374.784,148.48C374.784,148.48 414.123,215.68 414.123,298.24C412.821,296.661 389.717,333.781 330.261,335.061C330.261,335.061 320.192,323.669 313.024,313.728C347.797,303.744 360.811,283.776 360.811,283.776C293.12,326.4 233.792,319.744 162.816,290.944C162.155,290.944 161.856,290.645 161.515,290.304L161.515,290.176C161.173,289.856 160.875,289.536 160.213,289.536L158.933,289.536C154.581,286.677 151.68,285.269 151.68,285.269C151.68,285.269 164.672,305.237 198.059,315.221C189.291,325.227 180.608,336.597 180.608,336.597C121.173,335.189 99.499,298.069 99.499,298.069C99.499,215.381 138.603,148.309 138.603,148.309ZM305.237,272.448C320.405,272.448 332.757,259.648 332.757,243.861C332.757,228.181 320.469,215.381 305.237,215.381L305.237,215.445C290.133,215.445 277.76,228.203 277.717,243.989C277.717,259.648 290.069,272.448 305.237,272.448ZM206.72,272.448C221.888,272.448 234.24,259.648 234.24,243.861C234.24,228.181 221.973,215.381 206.805,215.381L206.72,215.445C191.552,215.445 179.2,228.203 179.2,243.989C179.2,259.648 191.552,272.448 206.72,272.448ZM301.397,121.237L300.693,121.493L300.949,121.237L301.397,121.237Z" style="fill:white;fill-rule:nonzero;"/>
    </g>
</svg>
