<?xml version="1.0" encoding="UTF-8" standalone="no"?>
<!DOCTYPE svg PUBLIC "-//W3C//DTD SVG 1.1//EN" "http://www.w3.org/Graphics/SVG/1.1/DTD/svg11.dtd">
<svg width="100%" height="100%" viewBox="0 0 20 20" version="1.1" xmlns="http://www.w3.org/2000/svg" xmlns:xlink="http://www.w3.org/1999/xlink" xml:space="preserve" xmlns:serif="http://www.serif.com/" style="fill-rule:evenodd;clip-rule:evenodd;stroke-linejoin:round;stroke-miterlimit:2;">
    <g transform="matrix(-1.07477,1.07477,0.394756,0.394756,18.9014,0.244015)">
        <path d="M0.677,3.232L16.697,3.232C17.364,3.232 17.651,2.269 17.651,1.082C17.651,-0.104 17.364,-1.067 16.697,-1.067L0.677,-1.067C0.01,-1.067 -0.304,-0.104 -0.304,1.082C-0.304,2.269 0.01,3.232 0.677,3.232Z" style="fill:white;"/>
    </g>
    <g transform="matrix(1.07477,1.07477,-0.394756,0.394756,1.0986,0.244015)">
        <path d="M0.677,3.232L16.697,3.232C17.364,3.232 17.651,2.269 17.651,1.082C17.651,-0.104 17.364,-1.067 16.697,-1.067L0.677,-1.067C0.01,-1.067 -0.304,-0.104 -0.304,1.082C-0.304,2.269 0.01,3.232 0.677,3.232Z" style="fill:white;"/>
    </g>
</svg>
