<?xml version="1.0" encoding="UTF-8" standalone="no"?>
<!DOCTYPE svg PUBLIC "-//W3C//DTD SVG 1.1//EN" "http://www.w3.org/Graphics/SVG/1.1/DTD/svg11.dtd">
<svg width="100%" height="100%" viewBox="0 0 512 512" version="1.1" xmlns="http://www.w3.org/2000/svg" xmlns:xlink="http://www.w3.org/1999/xlink" xml:space="preserve" xmlns:serif="http://www.serif.com/" style="fill-rule:evenodd;clip-rule:evenodd;stroke-linejoin:round;stroke-miterlimit:2;">
    <g transform="matrix(1,0,0,1,0,182)">
        <g>
            <path d="M462,182L50,182C22.43,182 0,204.43 0,232L0,280C0,307.57 22.43,330 50,330L462,330C489.57,330 512,307.57 512,280L512,232C512,204.43 489.57,182 462,182Z" style="fill:white;fill-rule:nonzero;"/>
        </g>
    </g>
    <g>
        <g>
            <path d="M462,182L50,182C22.43,182 0,204.43 0,232L0,280C0,307.57 22.43,330 50,330L462,330C489.57,330 512,307.57 512,280L512,232C512,204.43 489.57,182 462,182Z" style="fill:white;fill-rule:nonzero;"/>
        </g>
    </g>
    <g transform="matrix(1,0,0,1,0,-182)">
        <g>
            <path d="M462,182L50,182C22.43,182 0,204.43 0,232L0,280C0,307.57 22.43,330 50,330L462,330C489.57,330 512,307.57 512,280L512,232C512,204.43 489.57,182 462,182Z" style="fill:white;fill-rule:nonzero;"/>
        </g>
    </g>
</svg>
