<?xml version="1.0" encoding="UTF-8" standalone="no"?>
<!DOCTYPE svg PUBLIC "-//W3C//DTD SVG 1.1//EN" "http://www.w3.org/Graphics/SVG/1.1/DTD/svg11.dtd">
<svg width="100%" height="100%" viewBox="0 0 50 50" version="1.1" xmlns="http://www.w3.org/2000/svg" xmlns:xlink="http://www.w3.org/1999/xlink" xml:space="preserve" xmlns:serif="http://www.serif.com/" style="fill-rule:evenodd;clip-rule:evenodd;stroke-linejoin:round;stroke-miterlimit:2;">
    <g transform="matrix(1.76097,1.76097,-1.89056,1.89056,66.0242,-113.85)">
        <path d="M40.93,46.898L34.315,46.898C33.905,46.898 33.571,47.2 33.571,47.572C33.571,47.943 33.905,48.245 34.315,48.245L40.93,48.245C41.34,48.245 41.674,47.943 41.674,47.572C41.674,47.2 41.34,46.898 40.93,46.898Z" style="fill:white;"/>
    </g>
    <g transform="matrix(1.37556,0,0,1.37556,-7.91519,-20.8718)">
        <path d="M21.384,15.173C30.011,15.173 37.014,22.177 37.014,30.803C37.014,39.43 30.011,46.433 21.384,46.433C12.758,46.433 5.754,39.43 5.754,30.803C5.754,22.177 12.758,15.173 21.384,15.173ZM21.384,17.79C28.566,17.79 34.397,23.621 34.397,30.803C34.397,37.985 28.566,43.816 21.384,43.816C14.202,43.816 8.371,37.985 8.371,30.803C8.371,23.621 14.202,17.79 21.384,17.79Z" style="fill:white;"/>
    </g>
</svg>
