<?xml version="1.0" encoding="UTF-8" standalone="no"?>
<!DOCTYPE svg PUBLIC "-//W3C//DTD SVG 1.1//EN" "http://www.w3.org/Graphics/SVG/1.1/DTD/svg11.dtd">
<svg width="100%" height="100%" viewBox="0 0 50 50" version="1.1" xmlns="http://www.w3.org/2000/svg" xmlns:xlink="http://www.w3.org/1999/xlink" xml:space="preserve" xmlns:serif="http://www.serif.com/" style="fill-rule:evenodd;clip-rule:evenodd;stroke-linejoin:round;stroke-miterlimit:2;">
    <g transform="matrix(2.13705,0,0,2.13671,-0.0598373,4.64187)">
        <path d="M12.925,1.37C13.336,1.37 13.675,1.709 13.675,2.12C13.675,2.493 13.397,2.812 13.027,2.863L12.925,2.87L5.657,2.87C3.202,2.87 1.623,4.496 1.532,7.03L1.528,7.263L1.528,15.345C1.528,17.947 3.011,19.629 5.434,19.725L5.657,19.729L14.261,19.729C16.718,19.729 18.295,18.109 18.386,15.577L18.39,15.344L18.39,8.304C18.39,7.893 18.729,7.554 19.14,7.554C19.513,7.554 19.832,7.832 19.883,8.202L19.89,8.304L19.89,15.344C19.89,18.744 17.75,21.116 14.496,21.224L14.262,21.228L5.657,21.228C2.327,21.228 0.132,18.928 0.032,15.584L0.028,15.344L0.028,7.264C0.028,3.872 2.17,1.484 5.422,1.364L5.656,1.36L12.924,1.36L12.925,1.37Z" style="fill:white;fill-rule:nonzero;"/>
    </g>
    <g transform="matrix(0.979202,0,0,0.979049,-16.8042,-12.8176)">
        <path d="M66.649,13.092L55.054,13.12C54.186,13.122 53.483,13.828 53.485,14.696C53.487,15.565 54.193,16.267 55.062,16.265L62.845,16.246L39.295,39.795C38.681,40.41 38.681,41.405 39.295,42.019C39.91,42.634 40.905,42.634 41.519,42.019L65.069,18.47L65.05,26.253C65.048,27.122 65.75,27.827 66.619,27.83C67.487,27.832 68.193,27.129 68.195,26.261L68.223,14.666C68.224,13.796 67.516,13.091 66.649,13.092Z" style="fill:white;"/>
    </g>
</svg>
