<?xml version="1.0" encoding="UTF-8" standalone="no"?>
<!DOCTYPE svg PUBLIC "-//W3C//DTD SVG 1.1//EN" "http://www.w3.org/Graphics/SVG/1.1/DTD/svg11.dtd">
<svg width="100%" height="100%" viewBox="0 0 512 512" version="1.1" xmlns="http://www.w3.org/2000/svg" xmlns:xlink="http://www.w3.org/1999/xlink" xml:space="preserve" xmlns:serif="http://www.serif.com/" style="fill-rule:evenodd;clip-rule:evenodd;stroke-linejoin:round;stroke-miterlimit:2;">
    <g>
        <g>
            <path d="M452,276L336,276C302.916,276 276,302.916 276,336L276,452C276,485.084 302.916,512 336,512L452,512C485.084,512 512,485.084 512,452L512,336C512,302.916 485.084,276 452,276Z" style="fill:white;fill-rule:nonzero;"/>
        </g>
    </g>
    <g transform="matrix(1,0,0,1,-276,0)">
        <g>
            <path d="M452,276L336,276C302.916,276 276,302.916 276,336L276,452C276,485.084 302.916,512 336,512L452,512C485.084,512 512,485.084 512,452L512,336C512,302.916 485.084,276 452,276Z" style="fill:white;fill-rule:nonzero;"/>
        </g>
    </g>
    <g transform="matrix(1,0,0,1,0,-276)">
        <g>
            <path d="M452,276L336,276C302.916,276 276,302.916 276,336L276,452C276,485.084 302.916,512 336,512L452,512C485.084,512 512,485.084 512,452L512,336C512,302.916 485.084,276 452,276Z" style="fill:white;fill-rule:nonzero;"/>
        </g>
    </g>
    <g transform="matrix(1,0,0,1,-276,-276)">
        <g>
            <path d="M452,276L336,276C302.916,276 276,302.916 276,336L276,452C276,485.084 302.916,512 336,512L452,512C485.084,512 512,485.084 512,452L512,336C512,302.916 485.084,276 452,276Z" style="fill:white;fill-rule:nonzero;"/>
        </g>
    </g>
</svg>
