<?xml version="1.0" encoding="UTF-8" standalone="no"?>
<!DOCTYPE svg PUBLIC "-//W3C//DTD SVG 1.1//EN" "http://www.w3.org/Graphics/SVG/1.1/DTD/svg11.dtd">
<svg width="100%" height="100%" viewBox="0 0 50 50" version="1.1" xmlns="http://www.w3.org/2000/svg" xmlns:xlink="http://www.w3.org/1999/xlink" xml:space="preserve" xmlns:serif="http://www.serif.com/" style="fill-rule:evenodd;clip-rule:evenodd;stroke-linejoin:round;stroke-miterlimit:2;">
    <g transform="matrix(0.10463,0,0,0.10463,0,-0.00039027)">
        <path d="M392.533,238.937C383.107,238.937 375.466,246.578 375.466,256.004L375.466,426.67C375.466,436.096 367.825,443.737 358.399,443.737L51.2,443.737C41.774,443.737 34.133,436.096 34.133,426.67L34.133,85.337C34.133,75.911 41.774,68.27 51.2,68.27L256,68.27C265.426,68.27 273.067,60.629 273.067,51.203C273.067,41.777 265.426,34.137 256,34.137L51.2,34.137C22.923,34.137 0,57.06 0,85.337L0,426.67C0,454.947 22.923,477.87 51.2,477.87L358.4,477.87C386.677,477.87 409.6,454.947 409.6,426.67L409.6,256.003C409.6,246.578 401.959,238.937 392.533,238.937Z" style="fill:white;fill-rule:nonzero;"/>
    </g>
    <g transform="matrix(0.10463,0,0,0.10463,0,-0.00039027)">
        <path d="M458.742,19.142C446.488,6.886 429.867,0.002 412.536,0.004C395.195,-0.046 378.557,6.85 366.337,19.153L141.534,243.937C139.669,245.816 138.262,248.1 137.421,250.61L103.288,353.01C100.309,361.953 105.144,371.617 114.087,374.595C115.822,375.173 117.639,375.468 119.467,375.47C121.299,375.467 123.12,375.173 124.86,374.6L227.26,340.467C229.775,339.627 232.06,338.213 233.933,336.337L458.735,111.535C484.25,86.023 484.253,44.657 458.742,19.142ZM434.603,87.419L212.736,309.286L146.449,331.421L168.516,265.219L390.468,43.353C402.67,31.175 422.435,31.195 434.613,43.397C440.43,49.226 443.708,57.117 443.733,65.352C443.754,73.631 440.467,81.575 434.603,87.419Z" style="fill:white;fill-rule:nonzero;"/>
    </g>
</svg>
