<?xml version="1.0" encoding="UTF-8" standalone="no"?>
<!DOCTYPE svg PUBLIC "-//W3C//DTD SVG 1.1//EN" "http://www.w3.org/Graphics/SVG/1.1/DTD/svg11.dtd">
<svg width="100%" height="100%" viewBox="0 0 50 50" version="1.1" xmlns="http://www.w3.org/2000/svg" xmlns:xlink="http://www.w3.org/1999/xlink" xml:space="preserve" xmlns:serif="http://www.serif.com/" style="fill-rule:evenodd;clip-rule:evenodd;stroke-linejoin:round;stroke-miterlimit:2;">
    <g transform="matrix(0.956007,0,0,0.956007,-3.6915,-3.31195)">
        <path d="M12.45,19.988C12.45,19.988 12.45,43.061 12.45,48.735C12.45,52.587 15.072,55.75 18.923,55.75C23.397,55.75 36.464,55.784 41.091,55.75C44.819,55.722 47.55,52.464 47.55,48.735C47.55,43.007 47.55,19.988 47.55,19.988L43.95,19.988C43.95,19.988 43.95,43.007 43.95,48.735C43.95,50.484 42.812,52.137 41.064,52.15C36.442,52.184 23.391,52.15 18.923,52.15C17.122,52.15 16.05,50.536 16.05,48.735C16.05,43.061 16.05,19.988 16.05,19.988L12.45,19.988Z" style="fill:white;"/>
    </g>
    <g transform="matrix(0.956007,0,0,0.956007,-3.6915,-3.56207)">
        <path d="M14.199,10.45C14.199,10.45 11.718,10.436 10.222,12.178C9.581,12.925 9.076,13.984 9.076,15.529C9.076,17.084 9.586,18.139 10.231,18.879C11.736,20.605 14.231,20.549 14.231,20.549L14.169,20.55L45.831,20.55L45.714,20.546C45.714,20.546 48.254,20.679 49.786,18.926C50.431,18.188 50.947,17.122 50.947,15.53C50.947,13.947 50.437,12.877 49.795,12.132C48.272,10.362 45.746,10.452 45.746,10.452L45.831,10.45L14.169,10.45L14.199,10.45ZM14.139,14.05C14.149,14.05 14.159,14.05 14.169,14.05L45.831,14.05C45.86,14.05 45.888,14.049 45.916,14.048C45.916,14.048 46.64,13.984 47.067,14.48C47.261,14.706 47.347,15.051 47.347,15.53C47.347,16.001 47.267,16.338 47.076,16.556C46.658,17.034 45.949,16.954 45.949,16.954C45.91,16.951 45.87,16.95 45.831,16.95L14.169,16.95C14.148,16.95 14.128,16.95 14.107,16.951C14.107,16.951 13.376,17.007 12.944,16.513C12.759,16.3 12.676,15.977 12.676,15.529C12.676,15.074 12.764,14.743 12.953,14.523C13.394,14.01 14.139,14.05 14.139,14.05Z" style="fill:white;"/>
    </g>
    <g transform="matrix(0.956007,0,0,0.956007,-3.6915,-4.15863)">
        <path d="M23.15,11.089C23.15,11.089 23.15,9.998 23.15,9.625C23.15,8.907 23.706,7.95 24.801,7.95C27.082,7.95 32.825,7.95 35.199,7.95C36.156,7.95 36.85,8.668 36.85,9.625C36.85,10.091 36.85,11.089 36.85,11.089L40.45,11.089C40.45,11.089 40.45,10.091 40.45,9.625C40.45,6.595 38.229,4.35 35.199,4.35C32.825,4.35 27.082,4.35 24.801,4.35C21.335,4.35 19.55,7.351 19.55,9.625C19.55,9.998 19.55,11.089 19.55,11.089L23.15,11.089Z" style="fill:white;"/>
    </g>
    <g transform="matrix(0.956007,0,0,5.17767,5.17596,-93.4796)">
        <path d="M25.824,21.89L25.824,26.155C25.824,26.339 26.631,26.488 27.624,26.488C28.618,26.488 29.424,26.339 29.424,26.155L29.424,21.89C29.424,21.707 28.618,21.558 27.624,21.558C26.631,21.558 25.824,21.707 25.824,21.89Z" style="fill:white;"/>
    </g>
    <g transform="matrix(0.956007,0,0,5.17767,-8.01693,-93.4796)">
        <path d="M25.824,21.89L25.824,26.155C25.824,26.339 26.631,26.488 27.624,26.488C28.618,26.488 29.424,26.339 29.424,26.155L29.424,21.89C29.424,21.707 28.618,21.558 27.624,21.558C26.631,21.558 25.824,21.707 25.824,21.89Z" style="fill:white;"/>
    </g>
    <g transform="matrix(0.956007,0,0,5.17767,-1.42048,-93.4796)">
        <path d="M25.824,21.89L25.824,26.155C25.824,26.339 26.631,26.488 27.624,26.488C28.618,26.488 29.424,26.339 29.424,26.155L29.424,21.89C29.424,21.707 28.618,21.558 27.624,21.558C26.631,21.558 25.824,21.707 25.824,21.89Z" style="fill:white;"/>
    </g>
</svg>
