<?xml version="1.0" encoding="UTF-8" standalone="no"?>
<!DOCTYPE svg PUBLIC "-//W3C//DTD SVG 1.1//EN" "http://www.w3.org/Graphics/SVG/1.1/DTD/svg11.dtd">
<svg width="100%" height="100%" viewBox="0 0 262 544" version="1.1" xmlns="http://www.w3.org/2000/svg" xmlns:xlink="http://www.w3.org/1999/xlink" xml:space="preserve" xmlns:serif="http://www.serif.com/" style="fill-rule:evenodd;clip-rule:evenodd;stroke-linejoin:round;stroke-miterlimit:2;">
    <g>
        <rect x="115.4" y="9.08" width="50" height="8" style="fill:rgb(212,212,212);"/>
        <g>
            <g>
                <path d="M253.79,10.08C258.937,16.373 261.427,24.507 261.26,34.48L261.26,508.91L261.23,510.33L261.14,511.73L261,513.12L260.8,514.5L260.55,515.85L260.25,517.19L259.9,518.5L259.5,519.8L259.04,521.07L258.54,522.32L258,523.54L257.4,524.74L256.77,525.91L256.08,527.06L255.36,528.17L254.6,529.26L253.79,530.31L252.95,531.34L252.07,532.32L251.15,533.28L250.19,534.2L249.21,535.08L248.18,535.92L247.13,536.73L246.05,537.49L244.93,538.21L243.79,538.89L242.61,539.53L241.41,540.12L240.19,540.67L238.94,541.17L237.67,541.62L236.37,542.03L235.06,542.38L233.72,542.68L232.37,542.93L230.99,543.13L229.61,543.27L228.2,543.36L226.78,543.38L34.47,543.38L33.05,543.36L31.65,543.27L30.26,543.13L28.89,542.93L27.53,542.68L26.2,542.38L24.88,542.03L23.59,541.62L22.31,541.17L21.06,540.67L19.84,540.12L18.64,539.53L17.47,538.89L16.32,538.21L15.21,537.49L14.12,536.73L13.07,535.92L12.05,535.08L11.06,534.2L10.11,533.28L9.19,532.32L8.31,531.34L7.46,530.31L6.66,529.26L5.89,528.17L5.17,527.06L4.49,525.91L3.85,524.74L3.26,523.54L2.71,522.32L2.21,521.07L1.76,519.8L1.36,518.5L1,517.19L0.7,515.85L0.45,514.5L0.25,513.12L0.11,511.73L0.03,510.33L0,508.91L0,34.48L0.03,33.06L0.11,31.65L0.25,30.26L0.45,28.89L0.7,27.54L1,26.2L1.36,24.88L1.76,23.59L2.21,22.32L2.71,21.07L3.26,19.84L3.85,18.64L4.49,17.47L5.17,16.33L5.89,15.21L6.66,14.13L7.46,13.07L8.31,12.05L9.19,11.06L10.11,10.11L11.06,9.19L12.05,8.31L13.07,7.47L14.12,6.66L15.21,5.9L16.32,5.17L17.47,4.49L18.64,3.86L19.84,3.26L21.06,2.72L22.31,2.21L23.59,1.76L24.88,1.36L26.2,1.01L27.53,0.7L28.89,0.45L30.26,0.26L31.65,0.12L33.05,0.03L34.47,0L226.78,0C239.64,0.427 248.643,3.787 253.79,10.08ZM229.1,9.28L205.15,9.28L204.86,9.29L204.59,9.3L204.33,9.32L204.08,9.33L203.83,9.36L203.37,9.42L202.95,9.52L202.57,9.64L202.39,9.72L202.22,9.81L201.9,10.01L201.62,10.27L201.49,10.41L201.37,10.57L201.25,10.75L201.14,10.93L201.04,11.14L200.95,11.36L200.86,11.59L200.79,11.85L200.71,12.12L200.65,12.41L200.59,12.72L200.53,13.04L200.48,13.39L200.44,13.76L200.4,14.15L200.37,14.56L200.35,15L200.32,15.46L200.28,15.91L200.23,16.35L200.16,16.78L200.07,17.2L199.98,17.61L199.74,18.41L199.6,18.79L199.45,19.17L199.28,19.54L199.11,19.89L198.92,20.24L198.71,20.58L198.5,20.91L198.28,21.24L198.04,21.55L197.79,21.86L197.53,22.16L197.26,22.45L196.99,22.73L196.7,23L196.4,23.27L196.09,23.52L195.77,23.77L195.45,24.01L195.11,24.25L194.77,24.47L194.41,24.69L194.05,24.9L193.69,25.1L193.31,25.3L192.93,25.48L192.54,25.66L192.14,25.84L191.74,26L191.33,26.16L190.49,26.46L190.07,26.59L189.92,26.64L189.78,26.68L189.48,26.76L188.88,26.88L188.73,26.9L188.58,26.93L188.43,26.95L188.27,26.96L187.97,27L187.81,27.01L187.66,27.02L187.5,27.03L187.35,27.04L187.03,27.06L186.88,27.06L186.72,27.07L184.98,27.07L184.83,27.06L80.35,27.06L80.19,27.05L79.88,27.05L79.72,27.04L79.56,27.04L79.4,27.03L79.25,27.03L78.93,27.01L78.78,27L78.62,26.99L78.47,26.97L78.31,26.96L78.16,26.94L78,26.92L77.7,26.88L77.54,26.86L77.39,26.84L76.79,26.72L76.64,26.68L76.5,26.64L76.2,26.56L76.06,26.51L75.63,26.38L75.21,26.24L74.8,26.09L74.39,25.93L73.99,25.77L73.59,25.6L73.2,25.42L72.82,25.24L72.45,25.05L72.08,24.85L71.72,24.64L71.37,24.43L71.03,24.21L70.7,23.98L70.37,23.74L70.06,23.5L69.75,23.25L69.45,22.99L68.89,22.45L68.62,22.16L68.36,21.87L68.12,21.57L67.88,21.26L67.44,20.62L67.24,20.28L67.05,19.94L66.87,19.58L66.71,19.22L66.56,18.85L66.42,18.47L66.29,18.08L66.17,17.68L66.07,17.27L65.99,16.85L65.91,16.42L65.85,15.98L65.81,15.53L65.78,15.08L65.75,14.64L65.72,14.23L65.68,13.84L65.64,13.47L65.59,13.12L65.54,12.79L65.48,12.48L65.41,12.19L65.34,11.91L65.26,11.66L65.17,11.42L65.08,11.2L64.98,10.99L64.87,10.8L64.76,10.63L64.63,10.46L64.5,10.31L64.37,10.18L64.07,9.94L63.9,9.84L63.73,9.75L63.55,9.67L63.37,9.6L63.17,9.54L62.75,9.44L62.53,9.41L62.29,9.37L62.05,9.35L61.8,9.33L61.53,9.31L61.26,9.3L60.98,9.29L60.68,9.28L36.79,9.28L35.79,9.3L34.79,9.36L33.8,9.46L32.82,9.59L31.85,9.77L30.89,9.98L29.94,10.23L29.01,10.51L28.09,10.83L27.18,11.18L26.29,11.56L25.42,11.98L24.56,12.43L23.73,12.9L22.91,13.41L22.11,13.95L21.34,14.51L20.58,15.11L19.85,15.72L19.15,16.37L18.47,17.04L17.81,17.74L17.19,18.45L16.59,19.2L16.02,19.96L15.48,20.74L14.97,21.55L14.49,22.38L14.05,23.22L13.64,24.08L13.26,24.96L12.92,25.86L12.62,26.77L12.35,27.7L12.12,28.64L11.94,29.6L11.79,30.57L11.68,31.55L11.62,32.54L11.59,33.55L11.59,507.6L11.62,508.61L11.68,509.6L11.79,510.59L11.94,511.56L12.12,512.52L12.35,513.46L12.62,514.39L12.92,515.31L13.26,516.2L13.64,517.08L14.05,517.95L14.49,518.79L14.97,519.61L15.48,520.41L16.02,521.2L16.59,521.96L17.19,522.69L17.81,523.41L18.47,524.1L19.15,524.77L19.85,525.41L20.58,526.02L21.34,526.61L22.11,527.17L22.91,527.7L23.73,528.2L24.56,528.68L25.42,529.12L26.29,529.53L27.18,529.91L28.09,530.26L29.01,530.57L29.94,530.85L30.89,531.1L31.85,531.31L32.82,531.48L33.8,531.61L34.79,531.71L35.79,531.77L36.79,531.79L229.26,531.79L230.26,531.77L231.26,531.71L232.24,531.61L233.2,531.48L234.15,531.31L235.08,531.1L236,530.85L236.89,530.57L237.77,530.26L238.63,529.91L239.47,529.53L240.3,529.12L241.1,528.68L241.88,528.2L242.63,527.7L243.37,527.17L244.08,526.61L244.77,526.02L245.44,525.41L246.08,524.77L246.69,524.1L247.28,523.41L247.84,522.69L248.38,521.96L248.88,521.2L249.36,520.41L249.81,519.61L250.23,518.79L250.62,517.95L250.98,517.08L251.31,516.2L251.61,515.31L251.87,514.39L252.1,513.46L252.3,512.52L252.46,511.56L252.59,510.59L252.68,509.6L252.73,508.61L252.75,507.6L252.6,507.6L252.6,33.55L252.58,32.54L252.52,31.55L252.43,30.57L252.31,29.6L252.14,28.64L251.95,27.7L251.72,26.77L251.45,25.86L251.16,24.96L250.83,24.08L250.47,23.22L250.08,22.38L249.66,21.55L249.21,20.74L248.73,19.96L248.22,19.2L247.69,18.45L247.13,17.74L246.54,17.04L245.92,16.37L245.28,15.72L244.62,15.11L243.93,14.51L243.22,13.95L242.48,13.41L241.72,12.9L240.94,12.43L240.14,11.98L239.32,11.56L238.48,11.18L237.62,10.83L236.74,10.51L235.84,10.23L234.93,9.98L233.99,9.77L233.05,9.59L232.08,9.46L231.1,9.36L230.11,9.3L229.1,9.28ZM158.38,10.82L157.64,11.91L157.37,13.22L157.64,14.53L158.38,15.62L159.46,16.35L160.77,16.62L162.09,16.35L163.17,15.62L163.9,14.53L164.17,13.22L163.91,11.87L163.2,10.79L162.12,10.08L160.77,9.82L159.46,10.09L158.38,10.82ZM117.92,11.61L117.66,11.64L117.42,11.7L117.18,11.78L116.96,11.88L116.75,11.99L116.56,12.13L116.39,12.28L116.24,12.45L116.11,12.64L116,12.84L115.93,13.06L115.88,13.29L115.86,13.53L115.88,13.77L115.92,14L116,14.22L116.09,14.42L116.22,14.61L116.36,14.78L116.53,14.93L116.72,15.07L116.92,15.18L117.15,15.28L117.39,15.36L117.64,15.42L117.91,15.45L118.18,15.46L148.33,15.46L148.6,15.45L148.87,15.42L149.12,15.36L149.36,15.28L149.59,15.18L149.79,15.07L149.98,14.93L150.15,14.78L150.29,14.61L150.42,14.42L150.51,14.22L150.59,14L150.63,13.77L150.65,13.53L150.63,13.29L150.59,13.06L150.51,12.84L150.42,12.64L150.29,12.45L150.15,12.28L149.98,12.13L149.79,11.99L149.59,11.88L149.36,11.78L149.12,11.7L148.87,11.64L148.6,11.61L148.33,11.6L118.18,11.6L117.92,11.61Z" style="fill:rgb(227,227,227);fill-rule:nonzero;"/>
                <g>
                    <path d="M252.95,13.04C258.667,20.317 261.437,27.463 261.26,34.48L261.26,508.91L261.23,510.33L261.14,511.73L261,513.12L260.8,514.5L260.55,515.85L260.25,517.19L259.9,518.5L259.5,519.8L259.04,521.07L258.54,522.32L258,523.54L257.4,524.74L256.77,525.91L256.08,527.06L255.36,528.17L254.6,529.26L253.79,530.31L252.95,531.34L252.07,532.32L251.15,533.28L250.19,534.2L249.21,535.08L248.18,535.92L247.13,536.73L246.05,537.49L244.93,538.21L243.79,538.89L242.61,539.53L241.41,540.12L240.19,540.67L238.94,541.17L237.67,541.62L236.37,542.03L235.06,542.38L233.72,542.68L232.37,542.93L230.99,543.13L229.61,543.27L228.2,543.36L226.78,543.38L34.47,543.38L33.05,543.36L31.65,543.27L30.26,543.13L28.89,542.93L27.53,542.68L26.2,542.38L24.88,542.03L23.59,541.62L22.31,541.17L21.06,540.67L19.84,540.12L18.64,539.53L17.47,538.89L16.32,538.21L15.21,537.49L14.12,536.73L13.07,535.92L12.05,535.08L11.06,534.2L10.11,533.28L9.19,532.32L8.31,531.34L7.46,530.31L6.66,529.26L5.89,528.17L5.17,527.06L4.49,525.91L3.85,524.74L3.26,523.54L2.71,522.32L2.21,521.07L1.76,519.8L1.36,518.5L1,517.19L0.7,515.85L0.45,514.5L0.25,513.12L0.11,511.73L0.03,510.33L0,508.91L0,34.48L0.03,33.06L0.11,31.65L0.25,30.26L0.45,28.89L0.7,27.54L1,26.2L1.36,24.88L1.76,23.59L2.21,22.32L2.71,21.07L3.26,19.84L3.85,18.64L4.49,17.47L5.17,16.33L5.89,15.21L6.66,14.13L7.46,13.07L8.31,12.05L9.19,11.06L10.11,10.11L11.06,9.19L12.05,8.31L13.07,7.47L14.12,6.66L15.21,5.9L16.32,5.17L17.47,4.49L18.64,3.86L19.84,3.26L21.06,2.72L22.31,2.21L23.59,1.76L24.88,1.36L26.2,1.01L27.53,0.7L28.89,0.45L30.26,0.26L31.65,0.12L33.05,0.03L34.47,0L226.78,0C238.51,1.417 247.233,5.763 252.95,13.04ZM229.1,9.28L205.15,9.28L204.86,9.29L204.59,9.3L204.33,9.32L204.08,9.33L203.83,9.36L203.37,9.42L202.95,9.52L202.57,9.64L202.39,9.72L202.22,9.81L201.9,10.01L201.62,10.27L201.49,10.41L201.37,10.57L201.25,10.75L201.14,10.93L201.04,11.14L200.95,11.36L200.86,11.59L200.79,11.85L200.71,12.12L200.65,12.41L200.59,12.72L200.53,13.04L200.48,13.39L200.44,13.76L200.4,14.15L200.37,14.56L200.35,15L200.32,15.46L200.28,15.91L200.23,16.35L200.16,16.78L200.07,17.2L199.98,17.61L199.74,18.41L199.6,18.79L199.45,19.17L199.28,19.54L199.11,19.89L198.92,20.24L198.71,20.58L198.5,20.91L198.28,21.24L198.04,21.55L197.79,21.86L197.53,22.16L197.26,22.45L196.99,22.73L196.7,23L196.4,23.27L196.09,23.52L195.77,23.77L195.45,24.01L195.11,24.25L194.77,24.47L194.41,24.69L194.05,24.9L193.69,25.1L193.31,25.3L192.93,25.48L192.54,25.66L192.14,25.84L191.74,26L191.33,26.16L190.49,26.46L190.07,26.59L189.92,26.64L189.78,26.68L189.48,26.76L188.88,26.88L188.73,26.9L188.58,26.93L188.43,26.95L188.27,26.96L187.97,27L187.81,27.01L187.66,27.02L187.5,27.03L187.35,27.04L187.03,27.06L186.88,27.06L186.72,27.07L184.98,27.07L184.83,27.06L80.35,27.06L80.19,27.05L79.88,27.05L79.72,27.04L79.56,27.04L79.4,27.03L79.25,27.03L78.93,27.01L78.78,27L78.62,26.99L78.47,26.97L78.31,26.96L78.16,26.94L78,26.92L77.7,26.88L77.54,26.86L77.39,26.84L76.79,26.72L76.64,26.68L76.5,26.64L76.2,26.56L76.06,26.51L75.63,26.38L75.21,26.24L74.8,26.09L74.39,25.93L73.99,25.77L73.59,25.6L73.2,25.42L72.82,25.24L72.45,25.05L72.08,24.85L71.72,24.64L71.37,24.43L71.03,24.21L70.7,23.98L70.37,23.74L70.06,23.5L69.75,23.25L69.45,22.99L68.89,22.45L68.62,22.16L68.36,21.87L68.12,21.57L67.88,21.26L67.44,20.62L67.24,20.28L67.05,19.94L66.87,19.58L66.71,19.22L66.56,18.85L66.42,18.47L66.29,18.08L66.17,17.68L66.07,17.27L65.99,16.85L65.91,16.42L65.85,15.98L65.81,15.53L65.78,15.08L65.75,14.64L65.72,14.23L65.68,13.84L65.64,13.47L65.59,13.12L65.54,12.79L65.48,12.48L65.41,12.19L65.34,11.91L65.26,11.66L65.17,11.42L65.08,11.2L64.98,10.99L64.87,10.8L64.76,10.63L64.63,10.46L64.5,10.31L64.37,10.18L64.07,9.94L63.9,9.84L63.73,9.75L63.55,9.67L63.37,9.6L63.17,9.54L62.75,9.44L62.53,9.41L62.29,9.37L62.05,9.35L61.8,9.33L61.53,9.31L61.26,9.3L60.98,9.29L60.68,9.28L36.79,9.28L35.79,9.3L34.79,9.36L33.8,9.46L32.82,9.59L31.85,9.77L30.89,9.98L29.94,10.23L29.01,10.51L28.09,10.83L27.18,11.18L26.29,11.56L25.42,11.98L24.56,12.43L23.73,12.9L22.91,13.41L22.11,13.95L21.34,14.51L20.58,15.11L19.85,15.72L19.15,16.37L18.47,17.04L17.81,17.74L17.19,18.45L16.59,19.2L16.02,19.96L15.48,20.74L14.97,21.55L14.49,22.38L14.05,23.22L13.64,24.08L13.26,24.96L12.92,25.86L12.62,26.77L12.35,27.7L12.12,28.64L11.94,29.6L11.79,30.57L11.68,31.55L11.62,32.54L11.59,33.55L11.59,507.6L11.62,508.61L11.68,509.6L11.79,510.59L11.94,511.56L12.12,512.52L12.35,513.46L12.62,514.39L12.92,515.31L13.26,516.2L13.64,517.08L14.05,517.95L14.49,518.79L14.97,519.61L15.48,520.41L16.02,521.2L16.59,521.96L17.19,522.69L17.81,523.41L18.47,524.1L19.15,524.77L19.85,525.41L20.58,526.02L21.34,526.61L22.11,527.17L22.91,527.7L23.73,528.2L24.56,528.68L25.42,529.12L26.29,529.53L27.18,529.91L28.09,530.26L29.01,530.57L29.94,530.85L30.89,531.1L31.85,531.31L32.82,531.48L33.8,531.61L34.79,531.71L35.79,531.77L36.79,531.79L229.26,531.79L230.26,531.77L231.26,531.71L232.24,531.61L233.2,531.48L234.15,531.31L235.08,531.1L236,530.85L236.89,530.57L237.77,530.26L238.63,529.91L239.47,529.53L240.3,529.12L241.1,528.68L241.88,528.2L242.63,527.7L243.37,527.17L244.08,526.61L244.77,526.02L245.44,525.41L246.08,524.77L246.69,524.1L247.28,523.41L247.84,522.69L248.38,521.96L248.88,521.2L249.36,520.41L249.81,519.61L250.23,518.79L250.62,517.95L250.98,517.08L251.31,516.2L251.61,515.31L251.87,514.39L252.1,513.46L252.3,512.52L252.46,511.56L252.59,510.59L252.68,509.6L252.73,508.61L252.75,507.6L252.6,507.6L252.6,33.55L252.58,32.54L252.52,31.55L252.43,30.57L252.31,29.6L252.14,28.64L251.95,27.7L251.72,26.77L251.45,25.86L251.16,24.96L250.83,24.08L250.47,23.22L250.08,22.38L249.66,21.55L249.21,20.74L248.73,19.96L248.22,19.2L247.69,18.45L247.13,17.74L246.54,17.04L245.92,16.37L245.28,15.72L244.62,15.11L243.93,14.51L243.22,13.95L242.48,13.41L241.72,12.9L240.94,12.43L240.14,11.98L239.32,11.56L238.48,11.18L237.62,10.83L236.74,10.51L235.84,10.23L234.93,9.98L233.99,9.77L233.05,9.59L232.08,9.46L231.1,9.36L230.11,9.3L229.1,9.28ZM158.38,10.82L157.64,11.91L157.37,13.22L157.64,14.53L158.38,15.62L159.46,16.35L160.77,16.62L162.09,16.35L163.17,15.62L163.9,14.53L164.17,13.22L163.91,11.87L163.2,10.79L162.12,10.08L160.77,9.82L159.46,10.09L158.38,10.82ZM117.92,11.61L117.66,11.64L117.42,11.7L117.18,11.78L116.96,11.88L116.75,11.99L116.56,12.13L116.39,12.28L116.24,12.45L116.11,12.64L116,12.84L115.93,13.06L115.88,13.29L115.86,13.53L115.88,13.77L115.92,14L116,14.22L116.09,14.42L116.22,14.61L116.36,14.78L116.53,14.93L116.72,15.07L116.92,15.18L117.15,15.28L117.39,15.36L117.64,15.42L117.91,15.45L118.18,15.46L148.33,15.46L148.6,15.45L148.87,15.42L149.12,15.36L149.36,15.28L149.59,15.18L149.79,15.07L149.98,14.93L150.15,14.78L150.29,14.61L150.42,14.42L150.51,14.22L150.59,14L150.63,13.77L150.65,13.53L150.63,13.29L150.59,13.06L150.51,12.84L150.42,12.64L150.29,12.45L150.15,12.28L149.98,12.13L149.79,11.99L149.59,11.88L149.36,11.78L149.12,11.7L148.87,11.64L148.6,11.61L148.33,11.6L118.18,11.6L117.92,11.61Z" style="fill:none;fill-rule:nonzero;"/>
                </g>
            </g>
        </g>
    </g>
</svg>
